<?xml version="1.0" encoding="iso-8859-1"?>
<!-- Uploaded to: SVG Repo, www.svgrepo.com, Generator: SVG Repo Mixer Tools -->
<svg fill="#000000" height="800px" width="800px" version="1.1" id="Layer_1" xmlns="http://www.w3.org/2000/svg" xmlns:xlink="http://www.w3.org/1999/xlink" 
	 viewBox="0 0 512 512" xml:space="preserve">
<g>
	<g>
		<path d="M380.86,282.693c-9.81,0-19.336,1.241-28.431,3.57c-16.237-21.886-37.229-40.123-61.069-53.147
			C311.153,207.449,322,174.519,322,139.73C322,64.049,269.796,0,202.136,0C134.477,0,82.271,64.033,82.271,139.729
			c0,34.776,10.838,67.694,30.616,93.357c-52.252,28.357-88.316,80.122-96.093,139.958c-2.828,21.763,14.125,41.12,36.144,41.12
			h214.504C275.604,469.44,323.352,512,380.859,512c63.221,0,114.654-51.433,114.654-114.653
			C495.515,334.126,444.081,282.693,380.86,282.693z M202.136,33.635c47.548,0,86.23,47.594,86.23,106.094
			c0,61.164-40.93,106.094-86.23,106.094c-45.936,0-86.23-45.763-86.23-106.094C115.906,81.228,154.588,33.635,202.136,33.635z
			 M267.428,380.528H52.94c-0.816,0.001-1.588-0.344-2.118-0.947c-0.531-0.603-0.776-1.406-0.673-2.202
			c6.822-52.495,40.209-97.429,88.011-119.364c18.367,13.547,40.292,21.443,63.974,21.443c23.635,0,45.564-7.868,63.964-21.436
			c20.911,9.645,39.593,24.078,54.311,41.872C292.266,317.346,272.387,346.73,267.428,380.528z M380.86,478.366
			c-44.674,0-81.019-36.344-81.019-81.019c0-43.743,35.552-81.02,81.019-81.02c44.674,0,81.02,36.345,81.02,81.02
			C461.88,442.021,425.535,478.366,380.86,478.366z"/>
	</g>
</g>
<g>
	<g>
		<path d="M416.407,380.529h-71.092c-9.288,0-16.817,7.53-16.817,16.817s7.53,16.817,16.817,16.817h71.092
			c9.288,0,16.817-7.53,16.817-16.817S425.694,380.529,416.407,380.529z"/>
	</g>
</g>
</svg>